<svg width="311" height="172" viewBox="0 0 311 172" fill="none" xmlns="http://www.w3.org/2000/svg">
<path d="M109.572 161.635C107.952 161.121 104.161 160.11 96.7734 155.439C71.3199 139.344 45.1474 123.812 20.1253 106.51C15.8582 103.568 12.7681 98.8987 11.497 93.473C10.3447 88.557 10.2315 84.6211 11.497 79.712C12.6275 75.3251 14.7294 71.328 17.6078 68.0924C20.4862 64.8568 24.0478 62.4871 27.9626 61.2027C30.57 59.8767 33.4204 59.2585 36.2816 59.3983C39.1428 59.5381 41.9341 60.4321 44.4283 62.0075C56.1484 68.6061 67.1496 76.6541 78.5818 83.6553C79.3819 84.2217 79.9894 85.0714 80.3078 86.0695C90.3739 94.1168 101.879 99.9917 112.448 107.154C120.07 112.304 128.986 115.201 134.019 124.697C135.436 127.136 136.391 129.876 136.823 132.745C137.398 136.563 137.252 138.621 136.823 141.838C136.185 146.63 134.273 151.096 131.336 154.655C128.4 158.214 124.574 160.702 120.358 161.796C116.645 162.759 113.952 162.621 109.572 161.635Z" fill="#4285F4"/>
<path d="M229.887 86.3312L187.68 59.4524C185.523 58.0843 183.51 56.3943 181.497 54.8653C180.248 53.9166 178.279 52.1989 176.248 48.6687C168.053 34.4238 172.581 19.1345 187.177 11.8113C190.453 10.1676 193.453 11.122 189.337 12.2137C185.222 13.3054 190.453 11.122 191.06 12.2137C191.666 13.3054 188.234 12.1406 187.875 11.4968C189 11.1333 192.56 9.6333 195 9.6333C199.5 9.6333 202.067 10.8342 204.649 12.4551C221.187 22.8363 237.868 33.0566 254.19 44.0012C262.387 49.4735 271.5 54.6362 279.5 59.5328C288 65.1362 294.147 69.093 298.123 77.4787C303.228 90.6768 297.188 103.392 282.951 110.956L281.953 111.625C277.39 112.293 275.953 113.125 270.368 111.681C259.91 107.249 249.926 101.527 240.601 94.6196C236.502 92.4471 232.044 91.079 229.887 86.3312Z" fill="#0F9D58"/>
<path d="M229.876 86.3437L263.382 107.187C265.61 108.363 267.89 109.411 270.214 110.325C274.453 111.624 276.385 111.262 280.453 111.624H281.953C256.14 127.719 231.026 143.883 204.998 159.737C199.693 162.79 193.525 163.37 187.839 161.35C182.154 159.329 177.414 154.872 174.655 148.953C173.194 146.063 172.281 142.868 171.974 139.565C171.667 136.263 171.972 132.925 172.87 129.761C173.767 126.596 175.238 123.673 177.19 121.173C179.143 118.674 181.535 116.652 184.218 115.234C199.461 105.899 214.705 96.0007 229.876 86.3437Z" fill="#FBBC04"/>
<path d="M80.2413 86.0818C69.755 80.7297 61.4531 74.1211 49.9706 67.492C43.4758 62.6227 35.6804 60.406 27.8965 61.2152C52.8467 45.1203 78.2283 29.4277 102.747 13.3327C115.258 5.28527 134.672 13.3327 136.901 30.1519C137.504 34.701 137.262 36.1337 136.901 39.2456C136.471 42.9503 135.202 46.4704 133.213 49.4708C131.225 52.4712 128.583 54.8521 125.54 56.3867C110.728 66.5268 95.485 76.1838 80.2413 86.0818Z" fill="#EA4335"/>
<path d="M100.745 4.19531C107.099 1.77208 113.117 0.664395 118.869 1.47852C124.598 2.28944 130.177 5.02337 135.642 10.4873C139.487 14.3324 142.04 18.6973 143.632 22.1172C144.426 23.8238 144.978 25.2865 145.329 26.3174C145.505 26.8326 145.63 27.24 145.711 27.5146C145.751 27.6518 145.78 27.756 145.799 27.8242C145.808 27.8583 145.815 27.8837 145.819 27.8994C145.821 27.907 145.822 27.9129 145.823 27.916L145.824 27.918L146.056 28.833H162.938L163.174 27.9258C163.174 27.9252 163.174 27.9236 163.175 27.9219C163.176 27.9179 163.178 27.9107 163.181 27.9014C163.186 27.8828 163.193 27.8535 163.204 27.8145C163.226 27.7362 163.259 27.6174 163.305 27.4629C163.396 27.1537 163.537 26.6998 163.729 26.1328C164.113 24.9977 164.703 23.4131 165.522 21.626C167.171 18.0324 169.711 13.7077 173.303 10.5391C179.547 5.0309 185.334 2.26339 191.039 1.48438C196.751 0.704458 202.524 1.89834 208.774 4.56445C215.038 7.23629 221.709 11.3534 229.203 16.3418C236.663 21.3075 244.964 27.1535 254.346 33.1572C264.485 39.6457 272.943 44.6788 279.915 48.9336C286.905 53.1991 292.374 56.665 296.618 60.0537C300.848 63.431 303.81 66.6915 305.816 70.5176C307.815 74.3277 308.911 78.7865 309.283 84.6357C308.91 90.5178 307.992 95.0628 306.294 98.9658C304.593 102.875 302.08 106.212 298.422 109.626C294.748 113.055 289.941 116.539 283.667 120.751C277.363 124.983 269.777 129.82 260.356 136.096C251.351 141.724 242.827 147.557 234.83 152.741C226.801 157.946 219.265 162.524 212.1 165.752C204.934 168.98 198.217 170.823 191.818 170.631C185.453 170.44 179.313 168.235 173.276 163.204C168.966 159.612 166.441 155.287 164.993 151.844C164.27 150.125 163.82 148.634 163.551 147.579C163.416 147.052 163.328 146.635 163.273 146.354C163.246 146.213 163.227 146.107 163.216 146.038C163.21 146.004 163.206 145.978 163.204 145.963C163.203 145.955 163.202 145.95 163.201 145.947L163.053 144.904H145.786V146.121C145.786 146.131 145.786 146.15 145.785 146.176C145.783 146.228 145.778 146.314 145.77 146.429C145.752 146.659 145.715 147.011 145.639 147.467C145.487 148.378 145.18 149.704 144.557 151.307C143.313 154.506 140.801 158.839 135.71 163.203C130.241 167.891 124.788 170.186 119.024 170.647C113.233 171.111 107.018 169.73 100.026 166.874C85.9742 161.133 69.2656 149.652 47.1338 136.091C43.6694 133.968 40.3437 132.001 37.1836 130.132C34.0203 128.261 31.0261 126.491 28.21 124.754C22.5733 121.277 17.702 117.965 13.7021 114.321C5.79299 107.117 1.22761 98.5679 1.21289 84.7021C1.95671 77.6721 3.15456 72.4991 5.1748 68.2334C7.19091 63.9765 10.0632 60.5463 14.2734 57.0664C18.5079 53.5666 24.0593 50.0439 31.4248 45.585C38.77 41.1383 47.8855 35.7798 59.1494 28.6445C74.2661 19.0687 87.9591 9.07181 100.745 4.19531Z" stroke="black" stroke-opacity="0.1" stroke-width="2.42675"/>
</svg>
